<svg xmlns="http://www.w3.org/2000/svg" viewBox="0 0 512 512" width="100%" height="100%">
  <!-- Background with premium dark gradient look -->
  <rect width="512" height="512" rx="110" fill="#141414"/>
  
  <!-- Outer Subtle Gold Ring -->
  <rect x="20" y="20" width="472" height="472" rx="90" fill="none" stroke="#D97706" stroke-width="4" opacity="0.4" />
  
  <!-- Thick Gold Accent Frame -->
  <rect x="35" y="35" width="442" height="442" rx="75" fill="none" stroke="#D97706" stroke-width="8" />
  
  <!-- Stylized Culinary Grill/Kebab Concept Art -->
  <g transform="translate(256, 230)">
    <!-- Decorative Ambient Fire Glow -->
    <path d="M-60,40 C-60,70 -30,100 0,100 C30,100 60,70 60,40 C50,55 30,65 0,65 C-30,65 -50,55 -60,40 Z" fill="#D97706" opacity="0.35" filter="blur(8px)" />
    
    <!-- Real-looking Flame vector at the bottom center -->
    <path d="M-25,50 C-25,75 -10,85 0,85 C10,85 25,75 25,50 C20,65 10,75 0,72 C-10,75 -20,65 -25,50 Z" fill="#D97706" />
    <path d="M-10,55 C-10,65 -5,70 0,70 C5,70 10,65 10,55 C7,60 4,62 0,61 C-4,62 -7,60 -10,55 Z" fill="#F9F7F2" />

    <!-- Two crossed premium Kebab/Grill skewers in rich Gold -->
    <!-- Skewer 1 (diagonal left-bottom to right-top) -->
    <g transform="rotate(-30)">
      <!-- Blade Shaft -->
      <line x1="-160" y1="0" x2="160" y2="0" stroke="#F9F7F2" stroke-width="6" stroke-linecap="round" />
      <line x1="-160" y1="0" x2="150" y2="0" stroke="#D97706" stroke-width="2" />
      <!-- Grilled meat/kebab pieces -->
      <rect x="-85" y="-22" width="45" height="44" rx="10" fill="#D97706" stroke="#141414" stroke-width="3" />
      <rect x="-30" y="-25" width="55" height="50" rx="12" fill="#92400E" stroke="#141414" stroke-width="3" />
      <rect x="35" y="-22" width="45" height="44" rx="10" fill="#D97706" stroke="#141414" stroke-width="3" />
      <!-- Skewer Handle -->
      <path d="M-190,-12 L-155,-12 L-155,12 L-190,12 Z" fill="#D97706" rx="4" />
      <circle cx="-172" cy="0" r="4" fill="#141414" />
    </g>

    <!-- Skewer 2 (diagonal right-bottom to left-top) -->
    <g transform="rotate(30)">
      <!-- Blade Shaft -->
      <line x1="-160" y1="0" x2="160" y2="0" stroke="#F9F7F2" stroke-width="6" stroke-linecap="round" />
      <line x1="-160" y1="0" x2="150" y2="0" stroke="#D97706" stroke-width="2" />
      <!-- Grilled meat pieces -->
      <rect x="-85" y="-22" width="45" height="44" rx="10" fill="#D97706" stroke="#141414" stroke-width="3" opacity="0.95" />
      <rect x="-30" y="-25" width="55" height="50" rx="12" fill="#B45309" stroke="#141414" stroke-width="3" opacity="0.95" />
      <rect x="35" y="-22" width="45" height="44" rx="10" fill="#D97706" stroke="#141414" stroke-width="3" opacity="0.95" />
      <!-- Handle -->
      <path d="M-190,-12 L-155,-12 L-155,12 L-190,12 Z" fill="#D97706" rx="4" />
      <circle cx="-172" cy="0" r="4" fill="#141414" />
    </g>
  </g>

  <!-- Elegant Arabic Caligraphy / Typography Style Text at the bottom -->
  <text x="256" y="420" font-family="'Inter', 'Segoe UI', Tahoma, sans-serif" font-size="38" font-weight="900" fill="#F9F7F2" text-anchor="middle" letter-spacing="2">M O U L A N A</text>
  <text x="256" y="455" font-family="system-ui, -apple-system, sans-serif" font-size="22" font-weight="bold" fill="#D97706" text-anchor="middle">مطعم مولانا للمشويات والمأكولات</text>
</svg>
